<svg width="990" height="134" viewBox="0 0 990 134" fill="none" xmlns="http://www.w3.org/2000/svg">
<path d="M0.799988 131.1C3.55999 131.1 5.83999 130.5 7.63999 129.3C9.55999 128.1 11.18 125.7 12.5 122.1L56.06 4.19997L109.16 122.1C110.84 125.7 112.52 128.1 114.2 129.3C115.88 130.5 118.1 131.1 120.86 131.1V132H86.48V131.1C87.8 131.1 89 130.98 90.08 130.74C91.28 130.5 92.18 130.02 92.78 129.3C93.5 128.58 93.86 127.68 93.86 126.6C93.98 125.4 93.62 123.9 92.78 122.1L79.64 92.76C77.96 96.24 75.92 99.3 73.52 101.94C71.12 104.58 68.18 105.9 64.7 105.9C61.7 105.9 59.18 105.3 57.14 104.1C55.22 102.78 53.42 101.34 51.74 99.78C50.06 98.22 48.38 96.84 46.7 95.64C45.02 94.32 42.98 93.66 40.58 93.66C38.78 93.66 36.92 94.2 35 95.28C33.2 96.24 31.4 97.62 29.6 99.42C27.8 101.1 26 103.08 24.2 105.36C22.4 107.64 20.72 110.04 19.16 112.56L15.56 122.1C14.24 125.7 14.24 128.1 15.56 129.3C17 130.5 19.1 131.1 21.86 131.1V132H0.799988V131.1ZM50.66 27.96L26.18 93.48C28.22 91.44 30.5 89.7 33.02 88.26C35.66 86.7 38.36 85.92 41.12 85.92C43.64 85.92 45.86 86.7 47.78 88.26C49.82 89.7 51.74 91.32 53.54 93.12C55.34 94.8 57.14 96.42 58.94 97.98C60.74 99.42 62.66 100.14 64.7 100.14C67.7 100.14 70.28 99.12 72.44 97.08C74.72 94.92 76.7 92.46 78.38 89.7L50.66 27.96Z" fill="black"/>
<path d="M125.634 131.1C128.394 131.1 130.554 130.5 132.114 129.3C133.794 128.1 134.634 125.7 134.634 122.1V60.9C134.634 57.3 133.794 54.9 132.114 53.7C130.554 52.5 128.394 51.9 125.634 51.9V51C127.074 51 129.054 50.94 131.574 50.82C134.094 50.58 136.554 50.16 138.954 49.56C141.474 48.96 143.634 48.06 145.434 46.86C147.234 45.66 148.134 44.04 148.134 42H149.034V57.12C149.754 54.84 150.594 52.68 151.554 50.64C152.634 48.6 153.894 46.8 155.334 45.24C156.894 43.68 158.694 42.48 160.734 41.64C162.774 40.68 165.114 40.2 167.754 40.2C171.954 40.2 175.854 41.46 179.454 43.98C183.174 46.38 186.234 49.86 188.634 54.42L190.434 72.42H188.634C186.834 68.82 185.034 65.28 183.234 61.8C181.554 58.2 179.754 55.02 177.834 52.26C176.034 49.5 174.114 47.28 172.074 45.6C170.154 43.92 167.994 43.08 165.594 43.08C163.434 43.08 161.514 43.68 159.834 44.88C158.274 46.08 156.834 47.76 155.514 49.92C154.194 52.08 152.994 54.6 151.914 57.48C150.954 60.36 149.994 63.48 149.034 66.84V122.1C149.034 125.7 150.114 128.1 152.274 129.3C154.554 130.5 157.074 131.1 159.834 131.1V132H125.634V131.1Z" fill="black"/>
<path d="M221.373 22.38C217.893 22.98 215.013 24.42 212.733 26.7C210.573 28.86 209.253 31.62 208.773 34.98C208.293 31.62 206.973 28.86 204.813 26.7C202.653 24.54 199.833 23.16 196.353 22.56C199.833 22.08 202.653 20.76 204.813 18.6C207.093 16.32 208.473 13.5 208.953 10.14C209.433 13.5 210.753 16.26 212.913 18.42C215.073 20.58 217.893 21.9 221.373 22.38ZM194.013 131.1C196.773 131.1 198.933 130.5 200.493 129.3C202.173 128.1 203.013 125.7 203.013 122.1V60.9C203.013 57.3 202.173 54.9 200.493 53.7C198.933 52.5 196.773 51.9 194.013 51.9V51C195.453 51 197.433 50.94 199.953 50.82C202.473 50.58 204.933 50.16 207.333 49.56C209.853 48.96 212.013 48.06 213.813 46.86C215.613 45.66 216.513 44.04 216.513 42H217.413V122.1C217.413 125.7 218.193 128.1 219.753 129.3C221.433 130.5 223.653 131.1 226.413 131.1V132H194.013V131.1Z" fill="black"/>
<path d="M243.351 53.88C244.551 52.2 245.931 50.58 247.491 49.02C249.171 47.34 251.151 45.84 253.431 44.52C255.711 43.2 258.411 42.18 261.531 41.46C264.771 40.62 268.551 40.2 272.871 40.2C277.671 40.2 282.231 40.8 286.551 42C290.871 43.2 294.651 45 297.891 47.4C301.131 49.8 303.711 52.8 305.631 56.4C307.551 60 308.511 64.14 308.511 68.82V122.1C308.511 125.34 309.231 127.68 310.671 129.12C312.111 130.44 314.391 131.1 317.511 131.1V132C310.311 132 304.731 130.68 300.771 128.04C296.931 125.4 294.771 122.22 294.291 118.5C292.131 122.58 288.651 126.18 283.851 129.3C279.171 132.3 272.931 133.8 265.131 133.8C261.051 133.8 257.031 133.2 253.071 132C249.231 130.68 245.751 128.82 242.631 126.42C239.631 124.02 237.171 121.08 235.251 117.6C233.451 114 232.551 109.98 232.551 105.54C232.551 100.98 233.451 96.96 235.251 93.48C237.171 90 239.631 87.12 242.631 84.84C245.751 82.44 249.231 80.64 253.071 79.44C257.031 78.12 261.051 77.46 265.131 77.46C273.051 77.46 279.291 78.84 283.851 81.6C288.531 84.36 291.951 87.72 294.111 91.68V72.6C294.111 63.12 292.191 55.8 288.351 50.64C284.511 45.48 279.351 42.9 272.871 42.9C268.551 42.9 264.771 43.62 261.531 45.06C258.291 46.38 255.471 48.18 253.071 50.46C250.791 52.74 248.871 55.44 247.311 58.56C245.751 61.56 244.431 64.8 243.351 68.28H241.551L243.351 53.88ZM247.311 105.54C247.311 109.74 247.971 113.46 249.291 116.7C250.611 119.82 252.351 122.46 254.511 124.62C256.671 126.66 259.131 128.22 261.891 129.3C264.651 130.38 267.531 130.92 270.531 130.92C273.411 130.92 276.111 130.44 278.631 129.48C281.151 128.4 283.371 127.08 285.291 125.52C287.331 123.84 289.071 121.98 290.511 119.94C292.071 117.78 293.271 115.62 294.111 113.46V97.08C292.431 92.52 289.551 88.62 285.471 85.38C281.391 82.02 276.411 80.34 270.531 80.34C267.411 80.34 264.411 80.88 261.531 81.96C258.771 83.04 256.311 84.66 254.151 86.82C252.111 88.86 250.431 91.44 249.111 94.56C247.911 97.68 247.311 101.34 247.311 105.54Z" fill="black"/>
<path d="M322.719 87C322.719 79.92 323.859 73.56 326.139 67.92C328.539 62.16 331.719 57.24 335.679 53.16C339.639 48.96 344.199 45.78 349.359 43.62C354.639 41.34 360.159 40.2 365.919 40.2C372.279 40.2 377.619 41.7 381.939 44.7C386.379 47.58 389.919 51.6 392.559 56.76V19.5C392.559 15.9 391.719 13.5 390.039 12.3C388.479 11.1 386.319 10.5 383.559 10.5V9.59998C384.999 9.59998 386.979 9.53998 389.499 9.41997C392.019 9.17997 394.479 8.75997 396.879 8.15998C399.399 7.55998 401.559 6.65998 403.359 5.45998C405.159 4.25997 406.059 2.63997 406.059 0.599976H406.959V122.1C406.959 125.7 407.739 128.1 409.299 129.3C410.859 130.38 413.079 130.98 415.959 131.1V132C408.279 132 402.459 130.56 398.499 127.68C394.539 124.8 392.559 121.32 392.559 117.24C389.919 122.4 386.379 126.48 381.939 129.48C377.619 132.36 372.279 133.8 365.919 133.8C360.159 133.8 354.639 132.72 349.359 130.56C344.199 128.28 339.639 125.1 335.679 121.02C331.719 116.82 328.539 111.84 326.139 106.08C323.859 100.32 322.719 93.96 322.719 87ZM337.479 87C337.479 93.48 338.199 99.48 339.639 105C341.079 110.4 343.059 115.02 345.579 118.86C348.099 122.7 351.099 125.7 354.579 127.86C358.059 130.02 361.839 131.1 365.919 131.1C372.039 131.1 377.379 129.24 381.939 125.52C386.499 121.68 390.039 116.58 392.559 110.22V63.78C390.039 57.42 386.499 52.38 381.939 48.66C377.379 44.82 372.039 42.9 365.919 42.9C361.719 42.9 357.879 43.98 354.399 46.14C350.919 48.3 347.919 51.3 345.399 55.14C342.879 58.98 340.899 63.66 339.459 69.18C338.139 74.58 337.479 80.52 337.479 87Z" fill="black"/>
<path d="M420.244 131.1C423.004 131.1 425.164 130.5 426.724 129.3C428.404 128.1 429.244 125.7 429.244 122.1V60.9C429.244 57.3 428.404 54.9 426.724 53.7C425.164 52.5 423.004 51.9 420.244 51.9V51C421.684 51 423.664 50.94 426.184 50.82C428.704 50.58 431.164 50.16 433.564 49.56C436.084 48.96 438.244 48.06 440.044 46.86C441.844 45.66 442.744 44.04 442.744 42H443.644V57.12C445.324 54.72 447.124 52.5 449.044 50.46C450.964 48.42 453.064 46.68 455.344 45.24C457.744 43.68 460.324 42.48 463.084 41.64C465.964 40.68 469.084 40.2 472.444 40.2C476.524 40.2 480.604 40.8 484.684 42C488.884 43.2 492.664 45.24 496.024 48.12C499.504 50.88 502.324 54.66 504.484 59.46C506.644 64.14 507.724 70.02 507.724 77.1V122.1C507.724 125.7 508.504 128.1 510.064 129.3C511.744 130.5 513.964 131.1 516.724 131.1V132H482.524V131.1C486.124 131.1 488.824 130.5 490.624 129.3C492.424 128.1 493.324 125.7 493.324 122.1V75.3C493.324 65.34 491.164 57.48 486.844 51.72C482.644 45.84 477.184 42.9 470.464 42.9C465.304 42.9 460.624 44.4 456.424 47.4C452.224 50.4 447.964 54.72 443.644 60.36V122.1C443.644 125.7 444.544 128.1 446.344 129.3C448.144 130.5 450.844 131.1 454.444 131.1V132H420.244V131.1Z" fill="black"/>
<path d="M533.566 53.88C534.766 52.2 536.146 50.58 537.706 49.02C539.386 47.34 541.366 45.84 543.646 44.52C545.926 43.2 548.626 42.18 551.746 41.46C554.986 40.62 558.766 40.2 563.086 40.2C567.886 40.2 572.446 40.8 576.766 42C581.086 43.2 584.866 45 588.106 47.4C591.346 49.8 593.926 52.8 595.846 56.4C597.766 60 598.726 64.14 598.726 68.82V122.1C598.726 125.34 599.446 127.68 600.886 129.12C602.326 130.44 604.606 131.1 607.726 131.1V132C600.526 132 594.946 130.68 590.986 128.04C587.146 125.4 584.986 122.22 584.506 118.5C582.346 122.58 578.866 126.18 574.066 129.3C569.386 132.3 563.146 133.8 555.346 133.8C551.266 133.8 547.246 133.2 543.286 132C539.446 130.68 535.966 128.82 532.846 126.42C529.846 124.02 527.386 121.08 525.466 117.6C523.666 114 522.766 109.98 522.766 105.54C522.766 100.98 523.666 96.96 525.466 93.48C527.386 90 529.846 87.12 532.846 84.84C535.966 82.44 539.446 80.64 543.286 79.44C547.246 78.12 551.266 77.46 555.346 77.46C563.266 77.46 569.506 78.84 574.066 81.6C578.746 84.36 582.166 87.72 584.326 91.68V72.6C584.326 63.12 582.406 55.8 578.566 50.64C574.726 45.48 569.566 42.9 563.086 42.9C558.766 42.9 554.986 43.62 551.746 45.06C548.506 46.38 545.686 48.18 543.286 50.46C541.006 52.74 539.086 55.44 537.526 58.56C535.966 61.56 534.646 64.8 533.566 68.28H531.766L533.566 53.88ZM537.526 105.54C537.526 109.74 538.186 113.46 539.506 116.7C540.826 119.82 542.566 122.46 544.726 124.62C546.886 126.66 549.346 128.22 552.106 129.3C554.866 130.38 557.746 130.92 560.746 130.92C563.626 130.92 566.326 130.44 568.846 129.48C571.366 128.4 573.586 127.08 575.506 125.52C577.546 123.84 579.286 121.98 580.726 119.94C582.286 117.78 583.486 115.62 584.326 113.46V97.08C582.646 92.52 579.766 88.62 575.686 85.38C571.606 82.02 566.626 80.34 560.746 80.34C557.626 80.34 554.626 80.88 551.746 81.96C548.986 83.04 546.526 84.66 544.366 86.82C542.326 88.86 540.646 91.44 539.326 94.56C538.126 97.68 537.526 101.34 537.526 105.54Z" fill="black"/>
<path d="M810.28 42V42.9C803.8 42.9 800.56 45.06 798.22 51.9L770.32 132H768.52L735.58 61.26L710.92 132H709.12L671.86 51.9C668.62 44.88 664.66 42.9 659.26 42.9V42H697.06V42.9C688.06 42.9 685.18 45.6 688.06 51.9L715.24 110.94L733.78 57.48L731.26 51.9C728.02 44.88 725.86 42.9 720.46 42.9V42H756.46V42.9C747.46 42.9 744.58 45.6 747.46 51.9L774.64 110.94L795.16 51.9C797.5 45.06 796.42 42.9 787.42 42.9V42H810.28Z" fill="black"/>
<path d="M808.398 87C808.398 58.92 827.838 40.2 851.418 40.2C875.898 40.2 890.118 57.12 890.118 69C890.118 87.36 871.758 92.58 856.818 92.58C843.678 92.58 832.158 83.76 827.658 75.12H830.358C835.938 82.5 845.298 89.7 855.018 89.7C866.898 89.7 875.358 82.14 875.358 69C875.358 59.1 869.598 42.9 851.418 42.9C834.138 42.9 823.158 60.9 823.158 87C823.158 113.1 835.398 131.1 854.478 131.1C869.598 131.1 883.998 122.46 886.518 109.32H889.218C886.698 124.62 870.858 133.8 854.478 133.8C829.098 133.8 808.398 115.08 808.398 87Z" fill="black"/>
<path d="M989.144 87C989.144 115.08 968.984 133.8 945.944 133.8C933.344 133.8 924.524 127.5 919.304 117.24C919.304 125.34 911.204 132 895.904 132V131.1C899.504 131.1 904.904 129.3 904.904 122.1V19.5C904.904 12.3 901.304 10.5 895.904 10.5V9.59998C901.484 9.59998 918.404 8.87998 918.404 0.599976H919.304V56.76C924.524 46.5 933.344 40.2 945.944 40.2C968.984 40.2 989.144 58.92 989.144 87ZM974.384 87C974.384 60.9 962.864 42.9 945.944 42.9C933.704 42.9 924.344 51.18 919.304 63.78V110.22C924.344 122.82 933.704 131.1 945.944 131.1C962.144 131.1 974.384 113.1 974.384 87Z" fill="black"/>
</svg>
